<mxfile host="app.diagrams.net" modified="2023-12-19T03:28:38.870Z" agent="Mozilla/5.0 (Windows NT 10.0; Win64; x64) AppleWebKit/537.36 (KHTML, like Gecko) Chrome/120.0.0.0 Safari/537.36" etag="G-BRK_Rbw1_kYcuS6Bf2" version="22.1.11" type="github">
  <diagram id="C5RBs43oDa-KdzZeNtuy" name="Page-1">
    <mxGraphModel dx="2120" dy="1839" grid="1" gridSize="10" guides="1" tooltips="1" connect="1" arrows="1" fold="1" page="1" pageScale="1" pageWidth="827" pageHeight="1169" math="0" shadow="0">
      <root>
        <mxCell id="WIyWlLk6GJQsqaUBKTNV-0" />
        <mxCell id="WIyWlLk6GJQsqaUBKTNV-1" parent="WIyWlLk6GJQsqaUBKTNV-0" />
        <mxCell id="abffdMrdUMkTcwWsMWbN-68" value="" style="shape=table;startSize=0;container=1;collapsible=0;childLayout=tableLayout;fontSize=16;movable=1;resizable=1;rotatable=1;deletable=1;editable=1;locked=0;connectable=1;" parent="WIyWlLk6GJQsqaUBKTNV-1" vertex="1">
          <mxGeometry x="-640" y="-1110" width="646" height="870" as="geometry" />
        </mxCell>
        <mxCell id="abffdMrdUMkTcwWsMWbN-69" value="" style="shape=tableRow;horizontal=0;startSize=0;swimlaneHead=0;swimlaneBody=0;strokeColor=inherit;top=0;left=0;bottom=0;right=0;collapsible=0;dropTarget=0;fillColor=none;points=[[0,0.5],[1,0.5]];portConstraint=eastwest;fontSize=16;" parent="abffdMrdUMkTcwWsMWbN-68" vertex="1">
          <mxGeometry width="646" height="23" as="geometry" />
        </mxCell>
        <mxCell id="abffdMrdUMkTcwWsMWbN-70" value="Legacy System" style="shape=partialRectangle;html=1;whiteSpace=wrap;connectable=0;strokeColor=inherit;overflow=hidden;fillColor=none;top=0;left=0;bottom=0;right=0;pointerEvents=1;fontSize=16;rowspan=2;colspan=1;" parent="abffdMrdUMkTcwWsMWbN-69" vertex="1">
          <mxGeometry width="142" height="47" as="geometry">
            <mxRectangle width="142" height="23" as="alternateBounds" />
          </mxGeometry>
        </mxCell>
        <mxCell id="abffdMrdUMkTcwWsMWbN-71" value="Middleware" style="shape=partialRectangle;html=1;whiteSpace=wrap;connectable=0;strokeColor=inherit;overflow=hidden;fillColor=none;top=0;left=0;bottom=0;right=0;pointerEvents=1;fontSize=16;rowspan=1;colspan=2;" parent="abffdMrdUMkTcwWsMWbN-69" vertex="1">
          <mxGeometry x="142" width="358" height="23" as="geometry">
            <mxRectangle width="175" height="23" as="alternateBounds" />
          </mxGeometry>
        </mxCell>
        <mxCell id="abffdMrdUMkTcwWsMWbN-72" value="" style="shape=partialRectangle;html=1;whiteSpace=wrap;connectable=0;strokeColor=inherit;overflow=hidden;fillColor=none;top=0;left=0;bottom=0;right=0;pointerEvents=1;fontSize=16;" parent="abffdMrdUMkTcwWsMWbN-69" vertex="1" visible="0">
          <mxGeometry x="317" width="183" height="23" as="geometry">
            <mxRectangle width="183" height="23" as="alternateBounds" />
          </mxGeometry>
        </mxCell>
        <mxCell id="abffdMrdUMkTcwWsMWbN-174" value="SAP" style="shape=partialRectangle;html=1;whiteSpace=wrap;connectable=0;strokeColor=inherit;overflow=hidden;fillColor=none;top=0;left=0;bottom=0;right=0;pointerEvents=1;fontSize=16;rowspan=2;colspan=1;" parent="abffdMrdUMkTcwWsMWbN-69" vertex="1">
          <mxGeometry x="500" width="146" height="47" as="geometry">
            <mxRectangle width="146" height="23" as="alternateBounds" />
          </mxGeometry>
        </mxCell>
        <mxCell id="abffdMrdUMkTcwWsMWbN-166" style="shape=tableRow;horizontal=0;startSize=0;swimlaneHead=0;swimlaneBody=0;strokeColor=inherit;top=0;left=0;bottom=0;right=0;collapsible=0;dropTarget=0;fillColor=none;points=[[0,0.5],[1,0.5]];portConstraint=eastwest;fontSize=16;" parent="abffdMrdUMkTcwWsMWbN-68" vertex="1">
          <mxGeometry y="23" width="646" height="24" as="geometry" />
        </mxCell>
        <mxCell id="abffdMrdUMkTcwWsMWbN-167" style="shape=partialRectangle;html=1;whiteSpace=wrap;connectable=0;strokeColor=inherit;overflow=hidden;fillColor=none;top=0;left=0;bottom=0;right=0;pointerEvents=1;fontSize=16;" parent="abffdMrdUMkTcwWsMWbN-166" vertex="1" visible="0">
          <mxGeometry width="142" height="24" as="geometry">
            <mxRectangle width="142" height="24" as="alternateBounds" />
          </mxGeometry>
        </mxCell>
        <mxCell id="abffdMrdUMkTcwWsMWbN-168" value="Web Service" style="shape=partialRectangle;html=1;whiteSpace=wrap;connectable=0;strokeColor=inherit;overflow=hidden;fillColor=none;top=0;left=0;bottom=0;right=0;pointerEvents=1;fontSize=16;" parent="abffdMrdUMkTcwWsMWbN-166" vertex="1">
          <mxGeometry x="142" width="175" height="24" as="geometry">
            <mxRectangle width="175" height="24" as="alternateBounds" />
          </mxGeometry>
        </mxCell>
        <mxCell id="abffdMrdUMkTcwWsMWbN-169" value="Transform" style="shape=partialRectangle;html=1;whiteSpace=wrap;connectable=0;strokeColor=inherit;overflow=hidden;fillColor=none;top=0;left=0;bottom=0;right=0;pointerEvents=1;fontSize=16;" parent="abffdMrdUMkTcwWsMWbN-166" vertex="1">
          <mxGeometry x="317" width="183" height="24" as="geometry">
            <mxRectangle width="183" height="24" as="alternateBounds" />
          </mxGeometry>
        </mxCell>
        <mxCell id="abffdMrdUMkTcwWsMWbN-175" style="shape=partialRectangle;html=1;whiteSpace=wrap;connectable=0;strokeColor=inherit;overflow=hidden;fillColor=none;top=0;left=0;bottom=0;right=0;pointerEvents=1;fontSize=16;" parent="abffdMrdUMkTcwWsMWbN-166" vertex="1" visible="0">
          <mxGeometry x="500" width="146" height="24" as="geometry">
            <mxRectangle width="146" height="24" as="alternateBounds" />
          </mxGeometry>
        </mxCell>
        <mxCell id="abffdMrdUMkTcwWsMWbN-73" value="" style="shape=tableRow;horizontal=0;startSize=0;swimlaneHead=0;swimlaneBody=0;strokeColor=inherit;top=0;left=0;bottom=0;right=0;collapsible=0;dropTarget=0;fillColor=none;points=[[0,0.5],[1,0.5]];portConstraint=eastwest;fontSize=16;" parent="abffdMrdUMkTcwWsMWbN-68" vertex="1">
          <mxGeometry y="47" width="646" height="823" as="geometry" />
        </mxCell>
        <mxCell id="abffdMrdUMkTcwWsMWbN-74" value="" style="shape=partialRectangle;html=1;whiteSpace=wrap;connectable=0;strokeColor=inherit;overflow=hidden;fillColor=none;top=0;left=0;bottom=0;right=0;pointerEvents=1;fontSize=16;" parent="abffdMrdUMkTcwWsMWbN-73" vertex="1">
          <mxGeometry width="142" height="823" as="geometry">
            <mxRectangle width="142" height="823" as="alternateBounds" />
          </mxGeometry>
        </mxCell>
        <mxCell id="abffdMrdUMkTcwWsMWbN-76" value="" style="shape=partialRectangle;html=1;whiteSpace=wrap;connectable=0;strokeColor=inherit;overflow=hidden;fillColor=none;top=0;left=0;bottom=0;right=0;pointerEvents=1;fontSize=16;" parent="abffdMrdUMkTcwWsMWbN-73" vertex="1">
          <mxGeometry x="142" width="175" height="823" as="geometry">
            <mxRectangle width="175" height="823" as="alternateBounds" />
          </mxGeometry>
        </mxCell>
        <mxCell id="abffdMrdUMkTcwWsMWbN-83" style="shape=partialRectangle;html=1;whiteSpace=wrap;connectable=0;strokeColor=inherit;overflow=hidden;fillColor=none;top=0;left=0;bottom=0;right=0;pointerEvents=1;fontSize=16;" parent="abffdMrdUMkTcwWsMWbN-73" vertex="1">
          <mxGeometry x="317" width="183" height="823" as="geometry">
            <mxRectangle width="183" height="823" as="alternateBounds" />
          </mxGeometry>
        </mxCell>
        <mxCell id="abffdMrdUMkTcwWsMWbN-176" style="whiteSpace=wrap;html=1;rounded=0;glass=0;strokeWidth=1;shadow=0;" parent="abffdMrdUMkTcwWsMWbN-73" vertex="1">
          <mxGeometry x="500" width="146" height="823" as="geometry">
            <mxRectangle width="146" height="823" as="alternateBounds" />
          </mxGeometry>
        </mxCell>
        <mxCell id="abffdMrdUMkTcwWsMWbN-136" value="" style="whiteSpace=wrap;html=1;rounded=0;glass=0;strokeWidth=1;shadow=0;" parent="abffdMrdUMkTcwWsMWbN-73" vertex="1">
          <mxGeometry x="646" width="NaN" height="823" as="geometry">
            <mxRectangle width="NaN" height="823" as="alternateBounds" />
          </mxGeometry>
        </mxCell>
        <mxCell id="abffdMrdUMkTcwWsMWbN-75" value="" style="shape=partialRectangle;html=1;whiteSpace=wrap;connectable=0;strokeColor=inherit;overflow=hidden;fillColor=none;top=0;left=0;bottom=0;right=0;pointerEvents=1;fontSize=16;" parent="abffdMrdUMkTcwWsMWbN-73" vertex="1">
          <mxGeometry width="NaN" height="823" as="geometry">
            <mxRectangle width="NaN" height="823" as="alternateBounds" />
          </mxGeometry>
        </mxCell>
        <mxCell id="dfJZXDo_FbnktpeHFjxq-0" style="edgeStyle=orthogonalEdgeStyle;rounded=0;orthogonalLoop=1;jettySize=auto;html=1;entryX=0.5;entryY=0;entryDx=0;entryDy=0;" edge="1" parent="WIyWlLk6GJQsqaUBKTNV-1" source="abffdMrdUMkTcwWsMWbN-85" target="abffdMrdUMkTcwWsMWbN-138">
          <mxGeometry relative="1" as="geometry">
            <Array as="points">
              <mxPoint x="-65" y="-980" />
              <mxPoint x="-413" y="-980" />
            </Array>
          </mxGeometry>
        </mxCell>
        <mxCell id="abffdMrdUMkTcwWsMWbN-85" value="Requests資料查詢" style="rounded=1;whiteSpace=wrap;html=1;fontSize=12;glass=0;strokeWidth=1;shadow=0;" parent="WIyWlLk6GJQsqaUBKTNV-1" vertex="1">
          <mxGeometry x="-130" y="-1040" width="130" height="50" as="geometry" />
        </mxCell>
        <mxCell id="dfJZXDo_FbnktpeHFjxq-1" style="edgeStyle=orthogonalEdgeStyle;rounded=0;orthogonalLoop=1;jettySize=auto;html=1;" edge="1" parent="WIyWlLk6GJQsqaUBKTNV-1" source="abffdMrdUMkTcwWsMWbN-138" target="v7u4IJ1Ig2mSw9vjSMqS-24">
          <mxGeometry relative="1" as="geometry">
            <Array as="points">
              <mxPoint x="-413" y="-890" />
              <mxPoint x="-243" y="-890" />
            </Array>
          </mxGeometry>
        </mxCell>
        <mxCell id="abffdMrdUMkTcwWsMWbN-138" value="接收請求" style="rounded=0;whiteSpace=wrap;html=1;" parent="WIyWlLk6GJQsqaUBKTNV-1" vertex="1">
          <mxGeometry x="-473" y="-960" width="120" height="60" as="geometry" />
        </mxCell>
        <mxCell id="v7u4IJ1Ig2mSw9vjSMqS-27" style="edgeStyle=orthogonalEdgeStyle;rounded=0;orthogonalLoop=1;jettySize=auto;html=1;" parent="WIyWlLk6GJQsqaUBKTNV-1" source="abffdMrdUMkTcwWsMWbN-149" target="v7u4IJ1Ig2mSw9vjSMqS-26" edge="1">
          <mxGeometry relative="1" as="geometry">
            <Array as="points">
              <mxPoint x="-408" y="-520" />
              <mxPoint x="-238" y="-520" />
            </Array>
          </mxGeometry>
        </mxCell>
        <mxCell id="abffdMrdUMkTcwWsMWbN-149" value="回傳結果" style="rounded=0;whiteSpace=wrap;html=1;" parent="WIyWlLk6GJQsqaUBKTNV-1" vertex="1">
          <mxGeometry x="-480" y="-590" width="130" height="60" as="geometry" />
        </mxCell>
        <mxCell id="v7u4IJ1Ig2mSw9vjSMqS-11" value="顯示查詢結果" style="rounded=1;whiteSpace=wrap;html=1;" parent="WIyWlLk6GJQsqaUBKTNV-1" vertex="1">
          <mxGeometry x="-125" y="-320" width="120" height="60" as="geometry" />
        </mxCell>
        <mxCell id="v7u4IJ1Ig2mSw9vjSMqS-32" style="edgeStyle=orthogonalEdgeStyle;rounded=0;orthogonalLoop=1;jettySize=auto;html=1;" parent="WIyWlLk6GJQsqaUBKTNV-1" source="v7u4IJ1Ig2mSw9vjSMqS-24" target="v7u4IJ1Ig2mSw9vjSMqS-31" edge="1">
          <mxGeometry relative="1" as="geometry">
            <Array as="points">
              <mxPoint x="-243" y="-800" />
              <mxPoint x="-420" y="-800" />
            </Array>
          </mxGeometry>
        </mxCell>
        <mxCell id="v7u4IJ1Ig2mSw9vjSMqS-24" value="轉換資料" style="rounded=0;whiteSpace=wrap;html=1;" parent="WIyWlLk6GJQsqaUBKTNV-1" vertex="1">
          <mxGeometry x="-303" y="-870" width="120" height="60" as="geometry" />
        </mxCell>
        <mxCell id="v7u4IJ1Ig2mSw9vjSMqS-29" style="edgeStyle=orthogonalEdgeStyle;rounded=0;orthogonalLoop=1;jettySize=auto;html=1;" parent="WIyWlLk6GJQsqaUBKTNV-1" source="v7u4IJ1Ig2mSw9vjSMqS-26" target="v7u4IJ1Ig2mSw9vjSMqS-28" edge="1">
          <mxGeometry relative="1" as="geometry">
            <Array as="points">
              <mxPoint x="-238" y="-440" />
              <mxPoint x="-410" y="-440" />
            </Array>
          </mxGeometry>
        </mxCell>
        <mxCell id="v7u4IJ1Ig2mSw9vjSMqS-26" value="轉換資料" style="rounded=0;whiteSpace=wrap;html=1;" parent="WIyWlLk6GJQsqaUBKTNV-1" vertex="1">
          <mxGeometry x="-298" y="-510" width="120" height="60" as="geometry" />
        </mxCell>
        <mxCell id="dfJZXDo_FbnktpeHFjxq-5" style="edgeStyle=orthogonalEdgeStyle;rounded=0;orthogonalLoop=1;jettySize=auto;html=1;" edge="1" parent="WIyWlLk6GJQsqaUBKTNV-1" source="v7u4IJ1Ig2mSw9vjSMqS-28" target="v7u4IJ1Ig2mSw9vjSMqS-11">
          <mxGeometry relative="1" as="geometry">
            <Array as="points">
              <mxPoint x="-403" y="-350" />
              <mxPoint x="-65" y="-350" />
            </Array>
          </mxGeometry>
        </mxCell>
        <mxCell id="v7u4IJ1Ig2mSw9vjSMqS-28" value="回傳轉換後資料" style="rounded=0;whiteSpace=wrap;html=1;" parent="WIyWlLk6GJQsqaUBKTNV-1" vertex="1">
          <mxGeometry x="-470" y="-430" width="120" height="60" as="geometry" />
        </mxCell>
        <mxCell id="dfJZXDo_FbnktpeHFjxq-3" style="edgeStyle=orthogonalEdgeStyle;rounded=0;orthogonalLoop=1;jettySize=auto;html=1;" edge="1" parent="WIyWlLk6GJQsqaUBKTNV-1" source="v7u4IJ1Ig2mSw9vjSMqS-31" target="dfJZXDo_FbnktpeHFjxq-2">
          <mxGeometry relative="1" as="geometry">
            <Array as="points">
              <mxPoint x="-420" y="-710" />
              <mxPoint x="-569" y="-710" />
            </Array>
          </mxGeometry>
        </mxCell>
        <mxCell id="v7u4IJ1Ig2mSw9vjSMqS-31" value="傳送轉換後資料" style="rounded=0;whiteSpace=wrap;html=1;" parent="WIyWlLk6GJQsqaUBKTNV-1" vertex="1">
          <mxGeometry x="-480" y="-780" width="120" height="60" as="geometry" />
        </mxCell>
        <mxCell id="dfJZXDo_FbnktpeHFjxq-4" style="edgeStyle=orthogonalEdgeStyle;rounded=0;orthogonalLoop=1;jettySize=auto;html=1;" edge="1" parent="WIyWlLk6GJQsqaUBKTNV-1" source="dfJZXDo_FbnktpeHFjxq-2" target="abffdMrdUMkTcwWsMWbN-149">
          <mxGeometry relative="1" as="geometry">
            <Array as="points">
              <mxPoint x="-569" y="-620" />
              <mxPoint x="-415" y="-620" />
            </Array>
          </mxGeometry>
        </mxCell>
        <mxCell id="dfJZXDo_FbnktpeHFjxq-2" value="執行查詢請求" style="rounded=0;whiteSpace=wrap;html=1;" vertex="1" parent="WIyWlLk6GJQsqaUBKTNV-1">
          <mxGeometry x="-629" y="-690" width="120" height="60" as="geometry" />
        </mxCell>
      </root>
    </mxGraphModel>
  </diagram>
</mxfile>
